<svg xmlns="http://www.w3.org/2000/svg" width="192.331" height="56.803" viewBox="0 0 192.331 56.803">
  <g id="logo" transform="translate(0.5 0.5)">
    <g id="Group_2304" data-name="Group 2304" transform="translate(-802.133 -605.435)">
      <path id="Subtraction_1" data-name="Subtraction 1" d="M-513.62-2541.813H-668.451a11.429,11.429,0,0,1-11.416-11.417v-21.737a11.223,11.223,0,0,1,1.267-5.212,11.591,11.591,0,0,1,3.374-3.956l-.008-.006,12.778-10.539.058,0a11.385,11.385,0,0,1,7.615-2.935h154.831a11.429,11.429,0,0,1,11.416,11.417v21.738a11.23,11.23,0,0,1-1.222,5.123,11.587,11.587,0,0,1-3.261,3.926l0,.015-13.163,10.813c-.122.105-.253.213-.389.32l-.215.176,0-.012A11.3,11.3,0,0,1-513.62-2541.813Zm-140.333-53.329a10.011,10.011,0,0,0-10,10v19.624a10.011,10.011,0,0,0,10,10h152.717a10.011,10.011,0,0,0,10-10v-19.624a10.011,10.011,0,0,0-10-10Z" transform="translate(1482 3203.052)" fill="#32383d" stroke="rgba(0,0,0,0)" stroke-miterlimit="10" stroke-width="1"/>
      <path id="Path_680-8" data-name="Path 680-8" d="M855.124,608.482a6.192,6.192,0,0,1-.341,2.11,3.534,3.534,0,0,1-1.213,1.617,6.494,6.494,0,0,1-2.4,1.049,20.108,20.108,0,0,1-7.771,0,6.5,6.5,0,0,1-2.414-1.049,3.533,3.533,0,0,1-1.213-1.617,6.192,6.192,0,0,1-.341-2.11v-8.619a6.189,6.189,0,0,1,.341-2.11,3.606,3.606,0,0,1,1.213-1.628,6.372,6.372,0,0,1,2.414-1.062,20.11,20.11,0,0,1,7.771,0,6.37,6.37,0,0,1,2.4,1.062,3.607,3.607,0,0,1,1.213,1.628,6.189,6.189,0,0,1,.341,2.11Zm-9.958-.91a1.094,1.094,0,0,0,.38.847,4.627,4.627,0,0,0,3.487,0,1.1,1.1,0,0,0,.38-.847v-6.8a1.066,1.066,0,0,0-.38-.822,4.628,4.628,0,0,0-3.487,0,1.066,1.066,0,0,0-.38.822Z" transform="translate(-13.471 24.039)" fill="#32383d"/>
      <path id="Path_681-8" data-name="Path 681-8" d="M874.4,613.464h-3.918a.779.779,0,0,1-.91-.91V596.177a.779.779,0,0,1,.91-.91H874.4a.779.779,0,0,1,.91.91v5.485h4.221v-5.485a.779.779,0,0,1,.91-.91h3.918a.779.779,0,0,1,.909.91v16.378a.779.779,0,0,1-.909.91h-3.918a.779.779,0,0,1-.91-.91v-5.611h-4.221v5.611a.78.78,0,0,1-.91.91Z" transform="translate(-24.353 23.833)" fill="#32383d"/>
      <path id="Path_682-7" data-name="Path 682-7" d="M906.593,613.463h-3.766a.779.779,0,0,1-.91-.91V596.176a.779.779,0,0,1,.91-.91h4.07a1.189,1.189,0,0,1,.67.176,1.664,1.664,0,0,1,.493.581l2.275,4.12a1.982,1.982,0,0,0,.217.329.3.3,0,0,0,.24.1h.227a.305.305,0,0,0,.24-.1,2.016,2.016,0,0,0,.217-.329l2.249-4.12a1.668,1.668,0,0,1,.494-.581,1.189,1.189,0,0,1,.67-.176h4.094a.779.779,0,0,1,.91.91v16.378a.779.779,0,0,1-.91.91h-3.892a.78.78,0,0,1-.91-.622.8.8,0,0,1,0-.287v-8.9l-1.491,2.755a1.353,1.353,0,0,1-1.339.809h-1.017a1.356,1.356,0,0,1-1.34-.809l-1.491-2.755v8.9a.779.779,0,0,1-.91.91Z" transform="translate(-36.037 23.834)" fill="#32383d"/>
      <path id="Path_683-7" data-name="Path 683-7" d="M944.943,613.464h-4.094a.78.78,0,0,1-.91-.91v-3.233l-3.867-5.181a5.036,5.036,0,0,1-.77-1.365,6,6,0,0,1-.19-1.743V596.18a.779.779,0,0,1,.91-.91h3.892a.779.779,0,0,1,.91.91v4.144q0,.254.025.531a1.078,1.078,0,0,0,.2.53l1.163,1.82a.985.985,0,0,0,.265.326.566.566,0,0,0,.341.1h.253a.564.564,0,0,0,.341-.1.993.993,0,0,0,.265-.326l1.163-1.82a1.087,1.087,0,0,0,.2-.53c.017-.185.026-.363.026-.531V596.18a.779.779,0,0,1,.91-.91h3.765a.78.78,0,0,1,.91.91v4.852a5.65,5.65,0,0,1-.2,1.743,5.738,5.738,0,0,1-.76,1.365l-3.841,5.206v3.21a.78.78,0,0,1-.91.91Z" transform="translate(-48.026 23.833)" fill="#32383d"/>
      <path id="Path_684-7" data-name="Path 684-7" d="M975.174,613.489h-8.517a.78.78,0,0,1-.91-.91V596.2a.779.779,0,0,1,.91-.91h8.517a7.262,7.262,0,0,1,4.688,1.264,4.758,4.758,0,0,1,1.529,3.892v7.885a4.759,4.759,0,0,1-1.529,3.892A7.261,7.261,0,0,1,975.174,613.489Zm-3.69-13.37v8.593h3.007a1.2,1.2,0,0,0,.9-.3,1.316,1.316,0,0,0,.29-.936v-6.141a1.261,1.261,0,0,0-.29-.922,1.224,1.224,0,0,0-.9-.291Z" transform="translate(-59.091 23.825)" fill="#32383d"/>
      <path id="Path_685-7" data-name="Path 685-7" d="M1008.452,613.489H996.725a.78.78,0,0,1-.91-.625.757.757,0,0,1,0-.284V596.2a.781.781,0,0,1,.624-.91.793.793,0,0,1,.286,0h11.727a.78.78,0,0,1,.91.91v2.957a.779.779,0,0,1-.91.91h-6.976v1.946h4.928a.779.779,0,0,1,.91.91v2.7a.779.779,0,0,1-.91.91h-4.928v2.171h6.976a.779.779,0,0,1,.91.91v2.957a.78.78,0,0,1-.623.91.8.8,0,0,1-.286,0Z" transform="translate(-69.952 23.825)" fill="#32383d"/>
      <path id="Path_686-7" data-name="Path 686-7" d="M1032.8,613.489h-6.571a1.612,1.612,0,0,1-.8-.178,1.173,1.173,0,0,1-.493-.656l-2.477-6.193q-.228-.556-.38-.973c-.1-.278-.186-.543-.253-.8a4.783,4.783,0,0,1-.139-.8q-.038-.417-.038-1.023V596.2a.779.779,0,0,1,.909-.91h4.019a1.1,1.1,0,0,1,.733.217.867.867,0,0,1,.253.7v6.976a2.57,2.57,0,0,0,.051.505,3.562,3.562,0,0,0,.152.531l1.187,3.538a.749.749,0,0,0,.177.341.449.449,0,0,0,.3.089h.279a.451.451,0,0,0,.3-.089.742.742,0,0,0,.178-.341l1.188-3.563a3.721,3.721,0,0,0,.152-.531,2.579,2.579,0,0,0,.05-.505V596.2a.779.779,0,0,1,.91-.91h3.968a.779.779,0,0,1,.91.91v6.672c0,.4-.013.746-.038,1.023a4.8,4.8,0,0,1-.139.8q-.1.379-.253.8t-.38.973l-2.477,6.193a1.177,1.177,0,0,1-.493.657A1.609,1.609,0,0,1,1032.8,613.489Z" transform="translate(-79.283 23.824)" fill="#32383d"/>
      <path id="Path_687-7" data-name="Path 687-7" d="M1052.628,624.909a.779.779,0,0,1-.909-.91v-3.387a.781.781,0,0,1,.909-.91h13.193a.78.78,0,0,1,.91.91V624a.779.779,0,0,1-.62.91.791.791,0,0,1-.29,0Z" transform="translate(-90.144 15.008)" fill="#f03c9c"/>
    </g>
  </g>
</svg>
